PathFileType	4	(X/Y/Z)	D:\TRACE\v60_Jaco2_6-2-23\JustArmDRS_Motion2_3-v60.trc
DataRate	CameraRate	NumFrames	NumMarkers	Units	OrigDataRate	OrigDataStartFrame	OrigNumFrames
100.00	100.00	      38	9	mm	100.00	872	      6969
Frame#	Time	front left toe			Front right toe			aft left toe			aft right toe			Arm			FL body			FR body			AL Body			AR Body			
		X1	Y1	Z1	X2	Y2	Z2	X3	Y3	Z3	X4	Y4	Z4	X5	Y5	Z5	X6	Y6	Z6	X7	Y7	Z7	X8	Y8	Z8	X9	Y9	Z9	

872	8.710	-149.61372	34.68349	-154.73212	258.24130	33.63380	-199.14737	-83.21964	-11.37847	446.80301	319.50821	-9.66261	435.06036	87.50822	1212.74548	-224.73167	-29.64201	585.39331	-299.31607	130.19238	580.91583	-317.44901	74.34424	566.58484	640.37177	230.63091	556.60150	624.85864	
873	8.720	-149.53912	35.03835	-154.36433	258.25989	33.75926	-198.91077	-84.69639	-10.79143	446.61771	319.68512	-10.35184	435.40875	88.60043	1213.12549	-223.33449	-29.07258	586.22125	-298.90143	130.39278	581.35156	-316.97253	75.35277	565.70874	640.77496	231.57230	555.45050	625.01862	
874	8.730	-149.67062	35.34981	-154.12842	257.98172	33.85023	-198.64751	-84.44682	-11.39560	446.79160	319.96542	-10.92148	435.73160	89.66157	1213.64612	-222.07373	-28.21355	586.65912	-297.85309	131.22557	581.93042	-316.18890	75.96400	565.00586	641.43579	232.15237	554.77606	625.52411	
875	8.740	-149.66628	35.63733	-154.04765	258.01636	34.14057	-198.38889	-84.22796	-12.17893	446.99213	320.05298	-11.43275	435.86511	90.79308	1213.87378	-220.85054	-27.64799	587.14954	-297.43082	131.82968	582.34210	-315.56375	77.22661	564.32019	642.83289	233.33832	554.03992	625.94354	
876	8.750	-149.63263	35.94050	-153.85501	258.20053	34.57462	-198.06989	-83.82835	-12.96254	447.21396	320.03094	-12.34521	435.99731	91.75737	1214.19873	-219.50209	-27.36622	587.78961	-296.84894	132.20668	582.91998	-315.12067	77.48576	563.66803	642.66937	234.00125	553.36926	627.31757	
877	8.760	-149.50294	36.27314	-153.55782	258.35574	34.87094	-197.78078	-83.46888	-13.79509	447.46811	320.15018	-12.72888	436.09769	92.52401	1214.71936	-218.28046	-26.36195	588.27521	-296.16309	132.88414	583.35040	-314.48209	78.37222	562.83130	643.12573	234.56265	552.35742	627.11993	
878	8.770	-149.46625	36.66239	-153.26900	258.47202	35.15284	-197.48830	-83.36985	-14.28775	447.46509	320.21472	-13.33038	436.33212	93.31308	1215.20874	-217.26340	-25.95248	588.76300	-295.61646	133.24240	583.84290	-314.18692	79.09695	562.29950	643.55927	235.49985	551.81708	627.59778	
879	8.780	-149.51895	37.12463	-152.91507	258.43167	35.42215	-197.44893	-83.45213	-14.69294	447.69006	320.00980	-14.11193	436.32886	94.04641	1215.49841	-216.05563	-25.77927	589.45367	-295.13455	133.78371	584.26031	-313.21738	79.83942	561.50226	644.18622	236.20015	551.34631	628.68237	
880	8.790	-149.64420	37.22837	-152.79628	258.18259	35.60992	-197.24866	-83.61971	-15.28645	448.08566	319.72543	-14.55579	436.37411	94.80958	1215.81152	-215.04271	-24.97434	589.76587	-294.38254	134.06334	584.95233	-312.85019	80.41166	561.03638	645.53424	237.48520	550.49371	628.71130	
881	8.800	-149.78989	37.38298	-152.63272	257.66486	35.65100	-197.01616	-83.84266	-15.52174	448.25055	319.34479	-15.14858	436.60086	95.61960	1216.50439	-213.52025	-25.00157	590.66791	-293.85300	133.90465	585.20624	-312.12640	80.82136	560.19568	645.43494	237.27727	549.79053	629.60205	
882	8.810	-150.19238	37.77024	-152.35841	257.08795	35.79237	-196.76651	-84.22643	-15.99558	448.17719	318.72302	-15.81397	436.66342	96.04243	1216.71240	-212.61952	-24.81209	591.19202	-293.34265	134.33591	585.67633	-311.40103	81.05354	559.63831	646.05042	237.68358	549.32446	630.08807	
883	8.820	-150.46925	37.96756	-152.15495	256.92062	36.17756	-196.64975	-84.50814	-16.58913	448.47318	318.41663	-16.40749	436.81073	96.55823	1216.90320	-211.18813	-24.60905	591.81207	-292.78799	134.47614	586.15100	-310.42538	81.56236	558.91821	646.42212	238.26332	548.54559	631.06683	
884	8.830	-150.67532	38.06138	-151.96831	256.67090	36.45613	-196.50266	-84.66318	-16.96068	448.59525	318.34824	-16.77057	436.90134	97.20395	1217.52051	-210.32289	-24.15355	592.43219	-292.07114	134.52231	586.96075	-310.44818	82.30888	558.21185	646.62946	238.23718	547.54883	630.66797	
885	8.840	-150.86525	38.26665	-151.82837	256.55823	36.73054	-196.36029	-84.75650	-17.36589	448.77045	318.18881	-17.08930	436.93365	97.65748	1217.81458	-209.30003	-24.20191	592.92865	-291.62488	135.41885	587.35193	-310.31042	82.48297	557.76031	647.16101	238.63132	546.63171	630.92017	
886	8.850	-151.13774	38.48676	-151.71329	256.25687	36.93941	-196.25853	-84.88044	-17.73586	448.86053	317.77225	-17.43889	437.01196	98.31773	1218.27393	-208.02884	-24.29001	593.40137	-291.13409	135.65039	587.93195	-309.84076	82.65575	557.05054	647.89606	239.37950	546.53754	632.22156	
887	8.860	-151.53540	38.75559	-151.70059	255.81233	36.99904	-196.15251	-85.18951	-18.03843	448.98889	317.56732	-17.75031	437.16003	98.61048	1218.34131	-207.15543	-24.35846	594.25574	-290.63342	135.69682	588.44110	-309.28909	83.31866	556.13428	648.83875	239.40663	545.18811	631.86316	
888	8.870	-152.08392	39.08249	-151.67665	255.46135	37.04585	-195.92032	-85.65084	-18.41565	449.15891	317.42599	-18.04943	437.31708	99.29774	1218.89978	-206.12476	-24.21194	594.63220	-290.26431	135.43443	588.90472	-308.91492	83.15209	555.69928	648.52515	239.77844	544.82086	633.18433	
889	8.880	-152.76761	39.37753	-151.48892	255.08185	37.09341	-195.73253	-86.05308	-18.50266	449.21561	316.80310	-18.62481	437.39426	99.49237	1219.02148	-205.19562	-23.81129	594.68896	-289.85126	135.32758	589.06482	-308.59540	83.45620	554.96149	649.00421	239.78461	543.81213	632.39539	
890	8.890	-153.17551	39.60973	-151.32524	254.34012	37.28473	-195.62482	-86.35474	-18.82346	449.29056	316.18991	-18.99166	437.57654	100.00342	1219.27124	-204.47307	-23.67841	595.03381	-289.40958	135.31615	589.35400	-308.15948	83.28363	554.53760	649.44965	240.12718	543.31873	632.58301	
891	8.900	-153.59309	39.71224	-151.23421	253.97124	37.43440	-195.66531	-86.47697	-19.30382	449.41794	315.88947	-19.22309	437.78400	100.54395	1219.66479	-203.72336	-24.01321	595.70007	-288.84109	135.14667	589.72333	-307.83517	83.71026	554.03180	649.49792	240.00763	542.58936	633.11877	
892	8.910	-153.79944	39.72041	-151.17116	253.53397	37.56868	-195.54749	-86.60015	-19.73783	449.34900	315.59451	-19.40024	437.87875	100.75367	1219.65723	-203.18216	-24.11494	595.98407	-288.57816	134.53415	589.87756	-307.33383	83.82069	553.48639	649.66260	240.20351	542.43994	634.48169	
893	8.920	-154.12991	39.91887	-151.12296	253.08261	37.71598	-195.55154	-86.63408	-20.36608	449.60196	315.18692	-19.65354	437.88687	101.22806	1220.15662	-202.28285	-24.51599	596.40326	-288.16223	134.35681	590.08685	-306.47772	84.06294	552.84613	650.84576	240.44463	541.89154	634.77826	
894	8.930	-154.81265	40.02670	-150.93858	252.69487	37.92069	-195.44891	-88.30954	-19.98197	449.62207	314.71121	-19.82983	437.91815	101.41552	1220.31384	-201.68378	-24.62512	596.80676	-287.95297	134.97337	590.61847	-307.01263	83.46064	552.37286	650.51056	240.28299	541.38446	635.12256	
895	8.940	-155.60834	40.28574	-150.78409	252.19629	37.94213	-195.34053	-88.95048	-20.00282	449.70831	314.05798	-19.97877	437.90268	101.58553	1220.47388	-200.87566	-24.79054	597.31708	-287.53864	134.90576	590.90918	-306.52579	83.26610	551.98077	650.78986	239.90286	540.22455	634.33887	
896	8.950	-156.11137	40.32513	-150.59448	251.76921	37.89204	-195.09932	-89.58659	-20.01740	449.77362	313.37210	-20.35262	437.94919	101.73443	1220.74768	-200.50952	-24.84949	597.68286	-287.34390	134.10651	591.17291	-305.87509	83.27719	551.50464	651.12848	239.73672	539.74744	634.58331	
897	8.960	-156.21335	40.19736	-150.54640	250.99265	37.80206	-195.16988	-90.02653	-20.03172	449.91150	312.89969	-20.61081	438.04056	102.01752	1220.91602	-199.93996	-24.88366	597.87018	-287.08755	134.30327	591.69568	-305.95648	83.46438	551.11316	651.25153	239.82037	539.33960	634.70227	
898	8.970	-156.64233	40.17894	-150.58586	250.43785	37.90187	-195.08723	-90.67876	-19.90476	449.94815	312.58295	-20.67822	438.14679	102.10156	1220.94543	-199.45679	-25.13107	598.02020	-286.80682	134.07234	591.69202	-305.70859	83.39348	550.77271	651.58508	239.64078	538.88965	634.96783	
899	8.980	-157.58490	40.35797	-150.57947	249.96207	37.93752	-194.99763	-91.34427	-20.09090	450.03409	311.97104	-20.72231	438.13806	102.33901	1221.09558	-199.09515	-25.74877	598.26184	-286.30017	133.33546	591.64709	-305.12299	83.14980	550.50208	651.71552	239.72130	539.02069	636.56580	
900	8.990	-158.38501	40.61394	-150.50200	249.61760	37.99013	-194.88812	-91.81570	-20.30033	450.05634	311.07614	-20.96851	438.09918	102.44515	1221.02344	-198.95995	-25.99022	598.37305	-285.95755	133.09279	591.75641	-304.89432	82.76715	550.30646	652.18781	239.47398	538.83325	636.74493	
901	9.000	-158.79622	40.64840	-150.41386	248.84644	38.03695	-194.92624	-93.81639	-19.50988	449.80716	310.41974	-21.11621	438.03531	102.21346	1221.26245	-198.58942	-25.98931	598.38898	-285.87860	132.96733	592.07031	-305.36002	82.51933	550.15680	652.41699	239.20277	538.74670	636.93115	
902	9.010	-159.05766	40.52023	-150.41397	247.89056	37.99945	-195.05809	-94.19493	-19.63123	449.80988	310.26984	-21.01248	438.14798	101.97094	1221.37903	-198.52507	-26.38687	598.56622	-285.69742	132.74591	592.08673	-305.13577	82.32734	550.05719	652.60114	238.94890	538.64667	637.10602	
903	9.020	-160.04187	40.48014	-150.45119	247.31555	38.08833	-195.00752	-94.85548	-19.57799	449.84097	309.52621	-20.88319	438.24478	101.64089	1221.37085	-198.34370	-27.05683	598.83490	-285.44724	132.66740	592.04083	-304.50436	81.80273	549.79871	652.76312	238.42020	538.24481	637.26575	
904	9.030	-160.95802	40.63802	-150.40227	246.85634	38.09079	-194.81810	-95.39494	-19.65700	449.77524	308.30356	-21.06071	438.23767	101.34041	1221.34070	-198.21519	-27.54270	598.93561	-285.34073	131.97234	592.25812	-304.32745	81.13072	549.67657	652.75854	238.13921	538.01202	637.21063	
905	9.040	-161.44357	40.58098	-150.34950	246.11806	38.03122	-194.76219	-96.06177	-19.62030	449.70169	307.72186	-21.07961	438.21329	101.23550	1221.40723	-198.01306	-28.08271	599.04095	-285.23471	130.84702	592.22742	-303.95346	81.22770	549.42932	653.43530	237.71692	537.79620	637.24371	
906	9.050	-161.89960	40.38081	-150.29816	245.24039	37.81736	-194.90617	-96.86738	-19.62578	449.69528	307.39441	-20.91092	438.26208	101.18368	1221.55872	-197.81680	-28.40497	599.17395	-285.15527	130.37589	592.32648	-303.90274	80.77955	549.33398	653.46991	237.41614	537.73889	637.44440	
907	9.060	-162.50751	40.46867	-150.35846	244.53720	37.64257	-194.99530	-97.28460	-19.59950	449.81161	306.70245	-20.89190	438.17740	101.04683	1221.70984	-197.69576	-29.30681	599.52124	-284.88443	129.89087	592.42590	-303.76910	80.31811	549.13306	652.89264	236.93398	537.51422	637.65051	
908	9.070	-163.57188	40.71541	-150.34363	243.80267	37.68533	-194.96259	-98.12654	-19.37125	449.84937	305.83246	-20.92120	438.03595	100.84488	1221.79456	-197.53604	-29.72229	599.59979	-284.78082	129.50714	592.82367	-303.94577	80.12993	548.99213	652.95715	236.61574	537.34198	637.75061	
909	9.080	-164.43051	40.76314	-150.50175	243.08528	37.60557	-195.12917	-98.78593	-19.27322	449.84888	305.03677	-20.80804	438.06046	100.47816	1221.82898	-197.59299	-30.32102	599.67804	-284.66034	128.96712	592.78931	-303.92612	79.50075	548.86249	653.28613	236.13306	537.04718	637.60168	
